<?xml version="1.0" standalone="no"?>
<!DOCTYPE svg PUBLIC "-//W3C//DTD SVG 20010904//EN"
 "http://www.w3.org/TR/2001/REC-SVG-20010904/DTD/svg10.dtd">
<svg version="1.0" xmlns="http://www.w3.org/2000/svg"
 width="860.000000pt" height="860.000000pt" viewBox="0 0 860.000000 860.000000"
 preserveAspectRatio="xMidYMid meet">
<metadata>
Created by potrace 1.14, written by Peter Selinger 2001-2017
</metadata>
<g transform="translate(0.000000,860.000000) scale(0.100000,-0.100000)"
fill="#000000" stroke="none">
<path d="M1180 7640 l0 -280 283 -2 282 -3 3 -282 2 -283 -280 0 -280 0 0
-275 0 -275 -290 0 -290 0 0 275 0 275 -280 0 -280 0 0 -835 0 -835 283 -2
282 -3 3 -547 2 -548 278 -2 277 -3 3 -282 2 -283 288 -2 287 -3 3 -282 2
-283 279 0 279 0 7 -85 c4 -47 4 -141 0 -209 -4 -68 -4 -153 0 -190 l7 -66
277 -2 276 -3 3 -267 2 -268 280 0 280 0 0 -290 0 -290 290 0 290 0 6 -26 c4
-15 4 -90 0 -168 -3 -78 -3 -187 0 -243 l7 -103 273 0 274 0 2 268 3 267 288
3 287 2 0 275 0 275 283 2 282 3 3 273 2 272 280 0 280 0 2 282 3 283 282 3
283 2 2 278 3 277 278 0 277 0 0 283 0 282 290 0 290 0 2 558 3 557 283 3 282
2 0 835 0 835 -282 2 -283 3 -3 273 -2 272 -280 0 -280 0 -2 283 -3 282 -1132
3 -1133 2 0 -285 0 -285 -275 0 -275 0 -2 -267 -3 -268 -290 0 -290 0 -3 283
-2 282 -280 0 -280 0 0 275 0 275 -1150 0 -1150 0 0 -280z"/>
<path d="M620 7070 l0 -280 280 0 280 0 0 280 0 280 -280 0 -280 0 0 -280z"/>
</g>
</svg>
